<mxfile host="65bd71144e">
    <diagram id="ICQcPOBknJBOJy8HuWOD" name="Page-1">
        <mxGraphModel dx="1093" dy="688" grid="0" gridSize="10" guides="1" tooltips="1" connect="1" arrows="1" fold="1" page="0" pageScale="1" pageWidth="850" pageHeight="1100" math="0" shadow="0">
            <root>
                <mxCell id="0"/>
                <mxCell id="1" parent="0"/>
                <mxCell id="13" value="" style="group" vertex="1" connectable="0" parent="1">
                    <mxGeometry x="1330" y="50" width="280" height="250" as="geometry"/>
                </mxCell>
                <mxCell id="10" value="" style="rounded=0;whiteSpace=wrap;html=1;align=left;" vertex="1" parent="13">
                    <mxGeometry width="280" height="250" as="geometry"/>
                </mxCell>
                <mxCell id="11" value="&lt;h1&gt;class RayQuery&lt;/h1&gt;&lt;div&gt;Represents one query of rays. Generated by QueryReducer instances.&lt;/div&gt;" style="text;html=1;strokeColor=none;fillColor=none;spacing=5;spacingTop=-20;whiteSpace=wrap;overflow=hidden;rounded=0;" vertex="1" parent="13">
                    <mxGeometry width="280" height="220" as="geometry"/>
                </mxCell>
                <mxCell id="14" value="" style="group" vertex="1" connectable="0" parent="1">
                    <mxGeometry x="720" y="50" width="280" height="250" as="geometry"/>
                </mxCell>
                <mxCell id="9" value="" style="rounded=0;whiteSpace=wrap;html=1;align=left;" vertex="1" parent="14">
                    <mxGeometry width="280" height="250" as="geometry"/>
                </mxCell>
                <mxCell id="8" value="&lt;h1&gt;class QueryReducer&lt;/h1&gt;&lt;div&gt;Reducer objects are passed to the compute engine to reduce from the set of rays to a meaningful output. In terms of map-reduce, the QueryReducer represents the Reduce step.&lt;/div&gt;&lt;div&gt;&lt;br&gt;&lt;/div&gt;&lt;div&gt;QueryReducers should be:&lt;/div&gt;&lt;div&gt;+ Easily serializable&lt;/div&gt;&lt;div&gt;+ High Performance&lt;/div&gt;&lt;div&gt;+ Generates an iterator of RayQuery objects for each individual query&lt;/div&gt;&lt;div&gt;+ Accumulates results, merges all reducers together and returns the result of a query.&lt;/div&gt;" style="text;html=1;strokeColor=none;fillColor=none;spacing=5;spacingTop=-20;whiteSpace=wrap;overflow=hidden;rounded=0;" vertex="1" parent="14">
                    <mxGeometry width="280" height="220" as="geometry"/>
                </mxCell>
                <mxCell id="15" value="" style="group" vertex="1" connectable="0" parent="1">
                    <mxGeometry x="110" y="40" width="280" height="250" as="geometry"/>
                </mxCell>
                <mxCell id="3" value="" style="rounded=0;whiteSpace=wrap;html=1;align=left;" vertex="1" parent="15">
                    <mxGeometry width="280" height="250" as="geometry"/>
                </mxCell>
                <mxCell id="6" value="&lt;h1&gt;class ResultParameters&lt;/h1&gt;&lt;div&gt;Jsonable parameters for result types. Responsible for serializing/deserializing data to/from config files.&lt;/div&gt;&lt;div&gt;&lt;br&gt;&lt;/div&gt;&lt;div&gt;Abstract methods:&lt;/div&gt;&lt;div&gt;&lt;br&gt;&lt;/div&gt;&lt;div&gt;def reducer(self, parameters) -&amp;gt; QueryReducer&lt;/div&gt;&lt;div&gt;&amp;nbsp; &amp;nbsp; Returns a QueryReducer that generates the result this ResultParameters subtype describes.&lt;/div&gt;&lt;div&gt;&lt;br&gt;&lt;/div&gt;&lt;div&gt;def result(self, parameters, dataset) -&amp;gt; Result:&lt;/div&gt;&lt;div&gt;&amp;nbsp; Geneartes the result object for lens_analysis from a finished simulation.&lt;/div&gt;&lt;div&gt;&lt;br&gt;&lt;/div&gt;" style="text;html=1;strokeColor=none;fillColor=none;spacing=5;spacingTop=-20;whiteSpace=wrap;overflow=hidden;rounded=0;" vertex="1" parent="15">
                    <mxGeometry width="280" height="230" as="geometry"/>
                </mxCell>
                <mxCell id="16" value="" style="shape=flexArrow;endArrow=classic;html=1;exitX=1;exitY=0.5;exitDx=0;exitDy=0;entryX=0;entryY=0.5;entryDx=0;entryDy=0;" edge="1" parent="1" source="6" target="8">
                    <mxGeometry width="50" height="50" relative="1" as="geometry">
                        <mxPoint x="820" y="460" as="sourcePoint"/>
                        <mxPoint x="870" y="410" as="targetPoint"/>
                    </mxGeometry>
                </mxCell>
                <mxCell id="17" value="" style="shape=flexArrow;endArrow=classic;html=1;exitX=1;exitY=0.5;exitDx=0;exitDy=0;entryX=0;entryY=0.5;entryDx=0;entryDy=0;" edge="1" parent="1" source="8" target="11">
                    <mxGeometry width="50" height="50" relative="1" as="geometry">
                        <mxPoint x="820" y="460" as="sourcePoint"/>
                        <mxPoint x="870" y="410" as="targetPoint"/>
                    </mxGeometry>
                </mxCell>
                <mxCell id="18" value="class MagmapReducer" style="rounded=0;whiteSpace=wrap;html=1;fillColor=none;" vertex="1" parent="1">
                    <mxGeometry x="520" y="390" width="160" height="60" as="geometry"/>
                </mxCell>
                <mxCell id="19" value="class LightcurvesReducer" style="rounded=0;whiteSpace=wrap;html=1;fillColor=none;" vertex="1" parent="1">
                    <mxGeometry x="700" y="390" width="160" height="60" as="geometry"/>
                </mxCell>
                <mxCell id="20" value="class LensedImageReducer" style="rounded=0;whiteSpace=wrap;html=1;fillColor=none;" vertex="1" parent="1">
                    <mxGeometry x="900" y="390" width="160" height="60" as="geometry"/>
                </mxCell>
                <mxCell id="21" style="edgeStyle=orthogonalEdgeStyle;html=1;exitX=0.5;exitY=1;exitDx=0;exitDy=0;entryX=0.5;entryY=0;entryDx=0;entryDy=0;" edge="1" parent="1" source="9" target="18">
                    <mxGeometry relative="1" as="geometry"/>
                </mxCell>
                <mxCell id="22" style="edgeStyle=orthogonalEdgeStyle;html=1;" edge="1" parent="1" target="19">
                    <mxGeometry relative="1" as="geometry">
                        <mxPoint x="860" y="300" as="sourcePoint"/>
                    </mxGeometry>
                </mxCell>
                <mxCell id="23" style="edgeStyle=orthogonalEdgeStyle;html=1;exitX=0.5;exitY=1;exitDx=0;exitDy=0;" edge="1" parent="1" source="9" target="20">
                    <mxGeometry relative="1" as="geometry"/>
                </mxCell>
                <mxCell id="24" value="..." style="rounded=0;whiteSpace=wrap;html=1;fillColor=none;" vertex="1" parent="1">
                    <mxGeometry x="860" y="470" width="50" height="30" as="geometry"/>
                </mxCell>
                <mxCell id="25" style="edgeStyle=orthogonalEdgeStyle;html=1;exitX=0.5;exitY=1;exitDx=0;exitDy=0;entryX=0.5;entryY=0;entryDx=0;entryDy=0;" edge="1" parent="1" source="9" target="24">
                    <mxGeometry relative="1" as="geometry"/>
                </mxCell>
                <mxCell id="26" value="class CountRayQuery" style="rounded=0;whiteSpace=wrap;html=1;fillColor=none;" vertex="1" parent="1">
                    <mxGeometry x="1248" y="393" width="120" height="60" as="geometry"/>
                </mxCell>
                <mxCell id="27" value="class LensPlaneQuery" style="rounded=0;whiteSpace=wrap;html=1;fillColor=none;" vertex="1" parent="1">
                    <mxGeometry x="1385" y="393" width="136" height="60" as="geometry"/>
                </mxCell>
                <mxCell id="28" value="class PolarityQuery" style="rounded=0;whiteSpace=wrap;html=1;fillColor=none;" vertex="1" parent="1">
                    <mxGeometry x="1595" y="386" width="136" height="60" as="geometry"/>
                </mxCell>
                <mxCell id="29" style="edgeStyle=orthogonalEdgeStyle;html=1;exitX=0.5;exitY=1;exitDx=0;exitDy=0;entryX=0.5;entryY=0;entryDx=0;entryDy=0;" edge="1" parent="1" source="10" target="26">
                    <mxGeometry relative="1" as="geometry"/>
                </mxCell>
                <mxCell id="30" style="edgeStyle=orthogonalEdgeStyle;html=1;exitX=0.5;exitY=1;exitDx=0;exitDy=0;entryX=0.5;entryY=0;entryDx=0;entryDy=0;" edge="1" parent="1" source="10" target="27">
                    <mxGeometry relative="1" as="geometry"/>
                </mxCell>
                <mxCell id="31" style="edgeStyle=orthogonalEdgeStyle;html=1;exitX=0.5;exitY=1;exitDx=0;exitDy=0;entryX=0.5;entryY=0;entryDx=0;entryDy=0;" edge="1" parent="1" source="10" target="28">
                    <mxGeometry relative="1" as="geometry"/>
                </mxCell>
                <mxCell id="32" value="..." style="rounded=0;whiteSpace=wrap;html=1;fillColor=none;" vertex="1" parent="1">
                    <mxGeometry x="1537" y="466" width="50" height="30" as="geometry"/>
                </mxCell>
                <mxCell id="33" style="edgeStyle=orthogonalEdgeStyle;html=1;exitX=0.5;exitY=1;exitDx=0;exitDy=0;entryX=0.5;entryY=0;entryDx=0;entryDy=0;" edge="1" parent="1" source="10" target="32">
                    <mxGeometry relative="1" as="geometry">
                        <Array as="points">
                            <mxPoint x="1470" y="344"/>
                            <mxPoint x="1562" y="344"/>
                        </Array>
                    </mxGeometry>
                </mxCell>
            </root>
        </mxGraphModel>
    </diagram>
</mxfile>